<svg width="146" height="31" viewBox="0 0 146 31" fill="none" xmlns="http://www.w3.org/2000/svg">
<path fill-rule="evenodd" clip-rule="evenodd" d="M59.5754 6.8752C58.6863 6.3184 57.6231 6.04 56.386 6.04C55.0523 6.04 53.8587 6.3712 52.8052 7.0336C51.7517 7.696 50.9206 8.64639 50.3117 9.8848C49.7028 11.1232 49.3983 12.5872 49.3983 14.2768C49.3983 15.9472 49.7028 17.4064 50.3117 18.6544C50.9206 19.9024 51.7517 20.8576 52.8052 21.52C53.8587 22.1824 55.0523 22.5136 56.386 22.5136C57.6231 22.5136 58.6863 22.2352 59.5754 21.6784C60.4646 21.1216 61.1122 20.3632 61.5181 19.4032V22.312H66.4762V1H61.5181V9.1504C61.1122 8.1904 60.4646 7.432 59.5754 6.8752ZM6.10941 22.312V15.1696H9.18284C10.7872 15.1696 12.1499 14.8864 13.2711 14.32C14.3922 13.7536 15.2379 12.976 15.8081 11.9872C16.3783 10.9984 16.6634 9.87041 16.6634 8.6032C16.6634 6.56799 16.0256 4.95041 14.7498 3.7504C13.474 2.55039 11.6184 1.9504 9.18284 1.9504H1.15134V22.312H6.10941ZM11.6184 8.6032C11.6184 10.3504 10.6229 11.224 8.63194 11.224H6.10941V5.9248H8.63194C10.6229 5.9248 11.6184 6.81759 11.6184 8.6032ZM24.0571 9.2656C24.6756 8.2864 25.473 7.5088 26.4491 6.9328C27.4253 6.3568 28.4836 6.0688 29.624 6.0688V11.3392H28.2033C26.8889 11.3392 25.8692 11.6176 25.1444 12.1744C24.4195 12.7312 24.0571 13.672 24.0571 14.9968V22.312H19.099V6.2416H24.0571V9.2656ZM43.5849 7.0336C42.3188 6.3712 40.8836 6.04 39.2792 6.04C37.6749 6.04 36.2348 6.3712 34.959 7.0336C33.6833 7.696 32.683 8.65119 31.9581 9.8992C31.2332 11.1472 30.8708 12.6064 30.8708 14.2768C30.8708 15.9472 31.2332 17.4064 31.9581 18.6544C32.683 19.9024 33.6833 20.8576 34.959 21.52C36.2348 22.1824 37.6749 22.5136 39.2792 22.5136C40.8836 22.5136 42.3188 22.1824 43.5849 21.52C44.851 20.8576 45.8465 19.9024 46.5714 18.6544C47.2962 17.4064 47.6587 15.9472 47.6587 14.2768C47.6587 12.6064 47.2962 11.1472 46.5714 9.8992C45.8465 8.65119 44.851 7.696 43.5849 7.0336ZM39.2792 10.3024C38.3321 10.3024 37.5347 10.6432 36.8872 11.3248C36.2396 12.0064 35.9159 12.9904 35.9159 14.2768C35.9159 15.5632 36.2396 16.5424 36.8872 17.2144C37.5347 17.8864 38.3321 18.2224 39.2792 18.2224C40.2264 18.2224 41.0189 17.8864 41.6568 17.2144C42.2947 16.5424 42.6136 15.5632 42.6136 14.2768C42.6136 12.9904 42.2947 12.0064 41.6568 11.3248C41.0189 10.6432 40.2264 10.3024 39.2792 10.3024ZM57.9807 10.36C56.9176 10.36 56.0623 10.7056 55.4147 11.3968C54.7672 12.088 54.4434 13.048 54.4434 14.2768C54.4434 15.5056 54.7672 16.4656 55.4147 17.1568C56.0623 17.848 56.9176 18.1936 57.9807 18.1936C59.0246 18.1936 59.8799 17.8384 60.5468 17.128C61.2136 16.4176 61.5471 15.4672 61.5471 14.2768C61.5471 13.0672 61.2136 12.112 60.5468 11.4112C59.8799 10.7104 59.0246 10.36 57.9807 10.36ZM81.0024 22.312H85.9895V6.2416H81.0024V14.7664C81.0024 15.9376 80.7125 16.84 80.1326 17.4736C79.5527 18.1072 78.7602 18.424 77.7551 18.424C76.7886 18.424 76.0202 18.1216 75.45 17.5168C74.8798 16.912 74.5947 16.0624 74.5947 14.968V6.2416H69.6656V15.5728C69.6656 17.7232 70.2116 19.4128 71.3038 20.6416C72.3959 21.8704 73.8698 22.4848 75.7254 22.4848C76.9432 22.4848 78.0112 22.2064 78.9293 21.6496C79.8475 21.0928 80.5385 20.344 81.0024 19.4032V22.312ZM96.7175 6.04C98.8051 6.04 100.554 6.61119 101.966 7.7536C103.377 8.89601 104.266 10.4656 104.633 12.4624H99.385C99.2304 11.7712 98.9114 11.2336 98.4282 10.8496C97.945 10.4656 97.3361 10.2736 96.6015 10.2736C95.7317 10.2736 95.0165 10.6144 94.4559 11.296C93.8954 11.9776 93.6151 12.9712 93.6151 14.2768C93.6151 15.5824 93.8954 16.576 94.4559 17.2576C95.0165 17.9392 95.7317 18.28 96.6015 18.28C97.3361 18.28 97.945 18.088 98.4282 17.704C98.9114 17.32 99.2304 16.7824 99.385 16.0912H104.633C104.266 18.088 103.377 19.6576 101.966 20.8C100.554 21.9424 98.8051 22.5136 96.7175 22.5136C95.1325 22.5136 93.7262 22.1824 92.4988 21.52C91.2714 20.8576 90.3097 19.9024 89.6138 18.6544C88.918 17.4064 88.57 15.9472 88.57 14.2768C88.57 12.5872 88.9131 11.1232 89.5993 9.8848C90.2856 8.64639 91.2472 7.696 92.4843 7.0336C93.7214 6.3712 95.1325 6.04 96.7175 6.04ZM116.376 22.312V18.0784H114.81C114.192 18.0784 113.752 17.9536 113.491 17.704C113.23 17.4544 113.099 17.0128 113.099 16.3792V10.3888H116.347V6.2416H113.099V2.296H108.141V6.2416H105.967V10.3888H108.141V16.2928C108.141 18.4432 108.668 19.984 109.722 20.9152C110.775 21.8464 112.249 22.312 114.143 22.312H116.376ZM124.117 1V22.312H119.159V1H124.117ZM135.164 16.0912L131.279 6.2416H125.741L132.526 21.7072L128.728 29.9728H134.179L144.269 6.2416H138.789L135.164 16.0912Z" fill="#173A56"/>
<path d="M59.5754 6.8752L59.8408 6.45143V6.45143L59.5754 6.8752ZM59.5754 21.6784L59.8408 22.1022V22.1022L59.5754 21.6784ZM61.5181 19.4032H62.0181L61.0576 19.2085L61.5181 19.4032ZM61.5181 22.312H61.0181V22.812H61.5181V22.312ZM66.4762 22.312V22.812H66.9762V22.312H66.4762ZM66.4762 1H66.9762V0.5H66.4762V1ZM61.5181 1V0.5H61.0181V1H61.5181ZM61.5181 9.1504L61.0576 9.34513L62.0181 9.1504H61.5181ZM6.10941 15.1696V14.6696H5.60941V15.1696H6.10941ZM6.10941 22.312V22.812H6.60941V22.312H6.10941ZM13.2711 14.32L13.4965 14.7663L13.2711 14.32ZM14.7498 3.7504L14.4072 4.1146V4.1146L14.7498 3.7504ZM1.15134 1.9504V1.4504H0.651337V1.9504H1.15134ZM1.15134 22.312H0.651337V22.812H1.15134V22.312ZM6.10941 11.224H5.60941V11.724H6.10941V11.224ZM6.10941 5.9248V5.4248H5.60941V5.9248H6.10941ZM26.4491 6.9328L26.195 6.50218L26.4491 6.9328ZM24.0571 9.2656H23.5571V10.9934L24.4798 9.53263L24.0571 9.2656ZM29.624 6.0688H30.124V5.5688H29.624V6.0688ZM29.624 11.3392V11.8392H30.124V11.3392H29.624ZM25.1444 12.1744L24.8398 11.7779L25.1444 12.1744ZM24.0571 22.312V22.812H24.5571V22.312H24.0571ZM19.099 22.312H18.599V22.812H19.099V22.312ZM19.099 6.2416V5.7416H18.599V6.2416H19.099ZM24.0571 6.2416H24.5571V5.7416H24.0571V6.2416ZM43.5849 7.0336L43.8167 6.59057L43.5849 7.0336ZM34.959 7.0336L34.7286 6.58985V6.58985L34.959 7.0336ZM31.9581 9.8992L32.3905 10.1503L31.9581 9.8992ZM34.959 21.52L34.7286 21.9638L34.959 21.52ZM43.5849 21.52L43.8167 21.963L43.5849 21.52ZM46.5714 9.8992L46.139 10.1503L46.5714 9.8992ZM36.8872 11.3248L36.5247 10.9804V10.9804L36.8872 11.3248ZM36.8872 17.2144L36.5271 17.5613V17.5613L36.8872 17.2144ZM41.6568 17.2144L41.2941 16.8702V16.8702L41.6568 17.2144ZM41.6568 11.3248L41.2917 11.6665V11.6665L41.6568 11.3248ZM55.4147 11.3968L55.0498 11.055V11.055L55.4147 11.3968ZM55.4147 17.1568L55.0498 17.4986V17.4986L55.4147 17.1568ZM60.5468 17.128L60.9113 17.4702V17.4702L60.5468 17.128ZM60.5468 11.4112L60.909 11.0665L60.909 11.0665L60.5468 11.4112ZM85.9895 22.312V22.812H86.4895V22.312H85.9895ZM81.0024 22.312H80.5024V22.812H81.0024V22.312ZM85.9895 6.2416H86.4895V5.7416H85.9895V6.2416ZM81.0024 6.2416V5.7416H80.5024V6.2416H81.0024ZM80.1326 17.4736L79.7638 17.136V17.136L80.1326 17.4736ZM74.5947 6.2416H75.0947V5.7416H74.5947V6.2416ZM69.6656 6.2416V5.7416H69.1656V6.2416H69.6656ZM71.3038 20.6416L70.93 20.9738L71.3038 20.6416ZM78.9293 21.6496L79.1886 22.0771H79.1886L78.9293 21.6496ZM81.0024 19.4032H81.5024L80.554 19.1821L81.0024 19.4032ZM101.966 7.7536L101.651 8.14221L101.651 8.14221L101.966 7.7536ZM104.633 12.4624V12.9624H105.233L105.125 12.372L104.633 12.4624ZM99.385 12.4624L98.8971 12.5716L98.9845 12.9624H99.385V12.4624ZM94.4559 11.296L94.0698 10.9784L94.4559 11.296ZM94.4559 17.2576L94.8421 16.94L94.4559 17.2576ZM98.4282 17.704L98.1171 17.3125V17.3125L98.4282 17.704ZM99.385 16.0912V15.5912H98.9845L98.8971 15.982L99.385 16.0912ZM104.633 16.0912L105.125 16.1816L105.233 15.5912H104.633V16.0912ZM101.966 20.8L101.651 20.4114L101.651 20.4114L101.966 20.8ZM92.4988 21.52L92.2613 21.96V21.96L92.4988 21.52ZM89.6138 18.6544L90.0505 18.4109V18.4109L89.6138 18.6544ZM89.5993 9.8848L89.162 9.64246V9.64246L89.5993 9.8848ZM92.4843 7.0336L92.2483 6.59281V6.59281L92.4843 7.0336ZM116.376 18.0784H116.876V17.5784H116.376V18.0784ZM116.376 22.312V22.812H116.876V22.312H116.376ZM113.491 17.704L113.145 18.0653L113.145 18.0653L113.491 17.704ZM113.099 10.3888V9.8888H112.599V10.3888H113.099ZM116.347 10.3888V10.8888H116.847V10.3888H116.347ZM116.347 6.2416H116.847V5.7416H116.347V6.2416ZM113.099 6.2416H112.599V6.7416H113.099V6.2416ZM113.099 2.296H113.599V1.796H113.099V2.296ZM108.141 2.296V1.796H107.641V2.296H108.141ZM108.141 6.2416V6.7416H108.641V6.2416H108.141ZM105.967 6.2416V5.7416H105.467V6.2416H105.967ZM105.967 10.3888H105.467V10.8888H105.967V10.3888ZM108.141 10.3888H108.641V9.8888H108.141V10.3888ZM109.722 20.9152L110.053 20.5406L109.722 20.9152ZM124.117 22.312V22.812H124.617V22.312H124.117ZM124.117 1H124.617V0.5H124.117V1ZM119.159 22.312H118.659V22.812H119.159V22.312ZM119.159 1V0.5H118.659V1H119.159ZM131.279 6.2416L131.744 6.05813L131.619 5.7416H131.279V6.2416ZM135.164 16.0912L134.699 16.2747L135.181 17.495L135.634 16.2639L135.164 16.0912ZM125.741 6.2416V5.7416H124.976L125.283 6.44247L125.741 6.2416ZM132.526 21.7072L132.98 21.916L133.074 21.712L132.984 21.5063L132.526 21.7072ZM128.728 29.9728L128.273 29.764L127.948 30.4728H128.728V29.9728ZM134.179 29.9728V30.4728H134.509L134.639 30.1684L134.179 29.9728ZM144.269 6.2416L144.729 6.43724L145.025 5.7416H144.269V6.2416ZM138.789 6.2416V5.7416H138.44L138.319 6.06893L138.789 6.2416ZM56.386 6.54C57.5463 6.54 58.5138 6.80032 59.3101 7.29897L59.8408 6.45143C58.8588 5.83648 57.7 5.54 56.386 5.54V6.54ZM53.0714 7.45688C54.0393 6.84823 55.1394 6.54 56.386 6.54V5.54C54.9652 5.54 53.678 5.89417 52.5391 6.61032L53.0714 7.45688ZM50.7604 10.1054C51.333 8.94083 52.1047 8.06469 53.0714 7.45688L52.5391 6.61032C51.3988 7.32732 50.5082 8.35196 49.863 9.66419L50.7604 10.1054ZM49.8983 14.2768C49.8983 12.6468 50.192 11.2615 50.7604 10.1054L49.863 9.66419C49.2136 10.9849 48.8983 12.5276 48.8983 14.2768H49.8983ZM50.761 18.4352C50.1916 17.2679 49.8983 15.8865 49.8983 14.2768H48.8983C48.8983 16.008 49.214 17.5449 49.8623 18.8736L50.761 18.4352ZM53.0714 21.0967C52.1057 20.4895 51.3339 19.6094 50.761 18.4352L49.8623 18.8736C50.5072 20.1954 51.3978 21.2257 52.5391 21.9433L53.0714 21.0967ZM56.386 22.0136C55.1394 22.0136 54.0393 21.7054 53.0714 21.0967L52.5391 21.9433C53.678 22.6594 54.9652 23.0136 56.386 23.0136V22.0136ZM59.3101 21.2546C58.5138 21.7533 57.5463 22.0136 56.386 22.0136V23.0136C57.7 23.0136 58.8588 22.7171 59.8408 22.1022L59.3101 21.2546ZM61.0576 19.2085C60.6919 20.0732 60.1128 20.7519 59.3101 21.2546L59.8408 22.1022C60.8164 21.4913 61.5324 20.6532 61.9786 19.5979L61.0576 19.2085ZM62.0181 22.312V19.4032H61.0181V22.312H62.0181ZM66.4762 21.812H61.5181V22.812H66.4762V21.812ZM65.9762 1V22.312H66.9762V1H65.9762ZM61.5181 1.5H66.4762V0.5H61.5181V1.5ZM62.0181 9.1504V1H61.0181V9.1504H62.0181ZM59.3101 7.29897C60.1128 7.80166 60.6919 8.48036 61.0576 9.34513L61.9786 8.95567C61.5324 7.90043 60.8164 7.06235 59.8408 6.45143L59.3101 7.29897ZM5.60941 15.1696V22.312H6.60941V15.1696H5.60941ZM9.18284 14.6696H6.10941V15.6696H9.18284V14.6696ZM13.0456 13.8737C12.0111 14.3964 10.73 14.6696 9.18284 14.6696V15.6696C10.8445 15.6696 12.2888 15.3764 13.4965 14.7663L13.0456 13.8737ZM15.375 11.7374C14.8582 12.6335 14.0889 13.3466 13.0456 13.8737L13.4965 14.7663C14.6955 14.1606 15.6175 13.3185 16.2412 12.237L15.375 11.7374ZM16.1634 8.6032C16.1634 9.79262 15.8967 10.8327 15.375 11.7374L16.2412 12.237C16.86 11.1641 17.1634 9.94819 17.1634 8.6032H16.1634ZM14.4072 4.1146C15.5661 5.20461 16.1634 6.68151 16.1634 8.6032H17.1634C17.1634 6.45447 16.4851 4.6962 15.0924 3.3862L14.4072 4.1146ZM9.18284 2.4504C11.5412 2.4504 13.2552 3.03099 14.4072 4.1146L15.0924 3.3862C13.6929 2.0698 11.6956 1.4504 9.18284 1.4504V2.4504ZM1.15134 2.4504H9.18284V1.4504H1.15134V2.4504ZM1.65134 22.312V1.9504H0.651337V22.312H1.65134ZM6.10941 21.812H1.15134V22.812H6.10941V21.812ZM8.63194 11.724C9.68962 11.724 10.5763 11.4934 11.2016 10.9446C11.8394 10.3849 12.1184 9.57207 12.1184 8.6032H11.1184C11.1184 9.38154 10.8997 9.8791 10.542 10.193C10.1718 10.5178 9.56524 10.724 8.63194 10.724V11.724ZM6.10941 11.724H8.63194V10.724H6.10941V11.724ZM5.60941 5.9248V11.224H6.60941V5.9248H5.60941ZM8.63194 5.4248H6.10941V6.4248H8.63194V5.4248ZM12.1184 8.6032C12.1184 7.6184 11.8414 6.79235 11.2056 6.22217C10.5802 5.66127 9.69188 5.4248 8.63194 5.4248V6.4248C9.56298 6.4248 10.1679 6.63473 10.5379 6.96663C10.8977 7.28924 11.1184 7.80239 11.1184 8.6032H12.1184ZM26.195 6.50218C25.1489 7.11945 24.2944 7.95374 23.6343 8.99857L24.4798 9.53263C25.0569 8.61905 25.797 7.89815 26.7032 7.36342L26.195 6.50218ZM29.624 5.5688C28.3948 5.5688 27.2487 5.88046 26.195 6.50218L26.7032 7.36342C27.6019 6.83314 28.5724 6.5688 29.624 6.5688V5.5688ZM30.124 11.3392V6.0688H29.124V11.3392H30.124ZM28.2033 11.8392H29.624V10.8392H28.2033V11.8392ZM25.4489 12.5709C26.0555 12.105 26.9523 11.8392 28.2033 11.8392V10.8392C26.8255 10.8392 25.683 11.1302 24.8398 11.7779L25.4489 12.5709ZM24.5571 14.9968C24.5571 13.7543 24.8955 12.996 25.4489 12.5709L24.8398 11.7779C23.9435 12.4664 23.5571 13.5897 23.5571 14.9968H24.5571ZM24.5571 22.312V14.9968H23.5571V22.312H24.5571ZM19.099 22.812H24.0571V21.812H19.099V22.812ZM18.599 6.2416V22.312H19.599V6.2416H18.599ZM24.0571 5.7416H19.099V6.7416H24.0571V5.7416ZM24.5571 9.2656V6.2416H23.5571V9.2656H24.5571ZM39.2792 6.54C40.8129 6.54 42.167 6.85604 43.3531 7.47663L43.8167 6.59057C42.4707 5.88635 40.9543 5.54 39.2792 5.54V6.54ZM35.1894 7.47735C36.3861 6.85602 37.7456 6.54 39.2792 6.54V5.54C37.6041 5.54 36.0835 5.88637 34.7286 6.58985L35.1894 7.47735ZM32.3905 10.1503C33.0679 8.98405 33.9983 8.09583 35.1894 7.47735L34.7286 6.58985C33.3683 7.29618 32.2981 8.31834 31.5257 9.64808L32.3905 10.1503ZM31.3708 14.2768C31.3708 12.6805 31.7165 11.3108 32.3905 10.1503L31.5257 9.64808C30.75 10.9837 30.3708 12.5322 30.3708 14.2768H31.3708ZM32.3905 18.4033C31.7165 17.2428 31.3708 15.8731 31.3708 14.2768H30.3708C30.3708 16.0214 30.75 17.5699 31.5257 18.9055L32.3905 18.4033ZM35.1894 21.0763C33.9983 20.4578 33.0679 19.5696 32.3905 18.4033L31.5257 18.9055C32.2981 20.2353 33.3683 21.2574 34.7286 21.9638L35.1894 21.0763ZM39.2792 22.0136C37.7456 22.0136 36.3861 21.6976 35.1894 21.0763L34.7286 21.9638C36.0835 22.6672 37.6041 23.0136 39.2792 23.0136V22.0136ZM43.3531 21.077C42.167 21.6976 40.8129 22.0136 39.2792 22.0136V23.0136C40.9543 23.0136 42.4707 22.6672 43.8167 21.963L43.3531 21.077ZM46.139 18.4033C45.461 19.5705 44.5347 20.4588 43.3531 21.077L43.8167 21.963C45.1673 21.2564 46.232 20.2343 47.0037 18.9055L46.139 18.4033ZM47.1587 14.2768C47.1587 15.8731 46.813 17.2428 46.139 18.4033L47.0037 18.9055C47.7795 17.5699 48.1587 16.0214 48.1587 14.2768H47.1587ZM46.139 10.1503C46.813 11.3108 47.1587 12.6805 47.1587 14.2768H48.1587C48.1587 12.5322 47.7795 10.9837 47.0037 9.64808L46.139 10.1503ZM43.3531 7.47663C44.5347 8.09482 45.461 8.98307 46.139 10.1503L47.0037 9.64808C46.232 8.31932 45.1673 7.29719 43.8167 6.59057L43.3531 7.47663ZM37.2497 11.6692C37.802 11.0878 38.468 10.8024 39.2792 10.8024V9.8024C38.1962 9.8024 37.2674 10.1986 36.5247 10.9804L37.2497 11.6692ZM36.4159 14.2768C36.4159 13.0706 36.7187 12.2281 37.2497 11.6692L36.5247 10.9804C35.7606 11.7847 35.4159 12.9102 35.4159 14.2768H36.4159ZM37.2472 16.8675C36.7189 16.3192 36.4159 15.4835 36.4159 14.2768H35.4159C35.4159 15.6429 35.7604 16.7656 36.5271 17.5613L37.2472 16.8675ZM39.2792 17.7224C38.4656 17.7224 37.7989 17.44 37.2472 16.8675L36.5271 17.5613C37.2705 18.3328 38.1985 18.7224 39.2792 18.7224V17.7224ZM41.2941 16.8702C40.753 17.4402 40.0927 17.7224 39.2792 17.7224V18.7224C40.3601 18.7224 41.2848 18.3326 42.0194 17.5586L41.2941 16.8702ZM42.1136 14.2768C42.1136 15.4854 41.8144 16.3221 41.2941 16.8702L42.0194 17.5586C42.7749 16.7627 43.1136 15.6411 43.1136 14.2768H42.1136ZM41.2917 11.6665C41.8147 12.2252 42.1136 13.0688 42.1136 14.2768H43.1136C43.1136 12.912 42.7747 11.7876 42.0219 10.9831L41.2917 11.6665ZM39.2792 10.8024C40.0903 10.8024 40.7499 11.0875 41.2917 11.6665L42.0219 10.9831C41.2879 10.1989 40.3625 9.8024 39.2792 9.8024V10.8024ZM55.7796 11.7386C56.3206 11.1612 57.0372 10.86 57.9807 10.86V9.86C56.798 9.86 55.804 10.25 55.0498 11.055L55.7796 11.7386ZM54.9434 14.2768C54.9434 13.136 55.2423 12.3122 55.7796 11.7386L55.0498 11.055C54.2921 11.8638 53.9434 12.96 53.9434 14.2768H54.9434ZM55.7796 16.815C55.2423 16.2414 54.9434 15.4176 54.9434 14.2768H53.9434C53.9434 15.5936 54.2921 16.6898 55.0498 17.4986L55.7796 16.815ZM57.9807 17.6936C57.0372 17.6936 56.3206 17.3924 55.7796 16.815L55.0498 17.4986C55.804 18.3036 56.798 18.6936 57.9807 18.6936V17.6936ZM60.1822 16.7858C59.6171 17.3878 58.8975 17.6936 57.9807 17.6936V18.6936C59.1516 18.6936 60.1426 18.289 60.9113 17.4702L60.1822 16.7858ZM61.0471 14.2768C61.0471 15.3698 60.7437 16.1877 60.1822 16.7858L60.9113 17.4702C61.6836 16.6475 62.0471 15.5646 62.0471 14.2768H61.0471ZM60.1846 11.7559C60.7422 12.3419 61.0471 13.1618 61.0471 14.2768H62.0471C62.0471 12.9726 61.6851 11.8821 60.909 11.0665L60.1846 11.7559ZM57.9807 10.86C58.8997 10.86 59.62 11.1627 60.1846 11.7559L60.909 11.0665C60.1397 10.2581 59.1494 9.86 57.9807 9.86V10.86ZM85.9895 21.812H81.0024V22.812H85.9895V21.812ZM85.4895 6.2416V22.312H86.4895V6.2416H85.4895ZM81.0024 6.7416H85.9895V5.7416H81.0024V6.7416ZM81.5024 14.7664V6.2416H80.5024V14.7664H81.5024ZM80.5015 17.8112C81.1923 17.0563 81.5024 16.0166 81.5024 14.7664H80.5024C80.5024 15.8586 80.2327 16.6237 79.7638 17.136L80.5015 17.8112ZM77.7551 18.924C78.8744 18.924 79.8105 18.5661 80.5015 17.8112L79.7638 17.136C79.2949 17.6483 78.6461 17.924 77.7551 17.924V18.924ZM75.0862 17.8598C75.7664 18.5813 76.6753 18.924 77.7551 18.924V17.924C76.9018 17.924 76.274 17.6619 75.8138 17.1738L75.0862 17.8598ZM74.0947 14.968C74.0947 16.1484 74.4036 17.1359 75.0862 17.8598L75.8138 17.1738C75.3559 16.6881 75.0947 15.9764 75.0947 14.968H74.0947ZM74.0947 6.2416V14.968H75.0947V6.2416H74.0947ZM69.6656 6.7416H74.5947V5.7416H69.6656V6.7416ZM70.1656 15.5728V6.2416H69.1656V15.5728H70.1656ZM71.6775 20.3094C70.6891 19.1974 70.1656 17.6393 70.1656 15.5728H69.1656C69.1656 17.8071 69.7341 19.6282 70.93 20.9738L71.6775 20.3094ZM75.7254 21.9848C73.9922 21.9848 72.662 21.4171 71.6775 20.3094L70.93 20.9738C72.1298 22.3237 73.7474 22.9848 75.7254 22.9848V21.9848ZM78.6701 21.2221C77.8401 21.7254 76.8643 21.9848 75.7254 21.9848V22.9848C77.0221 22.9848 78.1822 22.6874 79.1886 22.0771L78.6701 21.2221ZM80.554 19.1821C80.1333 20.0354 79.5089 20.7134 78.6701 21.2221L79.1886 22.0771C80.1862 21.4722 80.9438 20.6527 81.4509 19.6243L80.554 19.1821ZM81.5024 22.312V19.4032H80.5024V22.312H81.5024ZM102.28 7.36499C100.767 6.13992 98.9016 5.54 96.7175 5.54V6.54C98.7087 6.54 100.342 7.08247 101.651 8.14221L102.28 7.36499ZM105.125 12.372C104.739 10.2726 103.795 8.59144 102.28 7.36499L101.651 8.14221C102.958 9.20057 103.793 10.6585 104.141 12.5528L105.125 12.372ZM99.385 12.9624H104.633V11.9624H99.385V12.9624ZM98.1171 11.2411C98.4979 11.5436 98.7635 11.9746 98.8971 12.5716L99.873 12.3532C99.6972 11.5678 99.325 10.9236 98.7393 10.4581L98.1171 11.2411ZM96.6015 10.7736C97.2454 10.7736 97.7383 10.9401 98.1171 11.2411L98.7393 10.4581C98.1516 9.99114 97.4268 9.7736 96.6015 9.7736V10.7736ZM94.8421 11.6136C95.3093 11.0455 95.8837 10.7736 96.6015 10.7736V9.7736C95.5797 9.7736 94.7237 10.1833 94.0698 10.9784L94.8421 11.6136ZM94.1151 14.2768C94.1151 13.0334 94.3832 12.1716 94.8421 11.6136L94.0698 10.9784C93.4075 11.7836 93.1151 12.909 93.1151 14.2768H94.1151ZM94.8421 16.94C94.3832 16.382 94.1151 15.5202 94.1151 14.2768H93.1151C93.1151 15.6446 93.4075 16.77 94.0698 17.5752L94.8421 16.94ZM96.6015 17.78C95.8837 17.78 95.3093 17.5081 94.8421 16.94L94.0698 17.5752C94.7237 18.3703 95.5797 18.78 96.6015 18.78V17.78ZM98.1171 17.3125C97.7383 17.6135 97.2454 17.78 96.6015 17.78V18.78C97.4268 18.78 98.1516 18.5625 98.7393 18.0955L98.1171 17.3125ZM98.8971 15.982C98.7635 16.579 98.4979 17.01 98.1171 17.3125L98.7393 18.0955C99.325 17.63 99.6972 16.9858 99.873 16.2004L98.8971 15.982ZM104.633 15.5912H99.385V16.5912H104.633V15.5912ZM102.28 21.1886C103.795 19.9622 104.739 18.281 105.125 16.1816L104.141 16.0008C103.793 17.8951 102.958 19.353 101.651 20.4114L102.28 21.1886ZM96.7175 23.0136C98.9016 23.0136 100.767 22.4137 102.28 21.1886L101.651 20.4114C100.342 21.4711 98.7087 22.0136 96.7175 22.0136V23.0136ZM92.2613 21.96C93.5712 22.6669 95.061 23.0136 96.7175 23.0136V22.0136C95.2039 22.0136 93.8813 21.6979 92.7363 21.08L92.2613 21.96ZM89.1771 18.8979C89.9182 20.2269 90.948 21.2513 92.2613 21.96L92.7363 21.08C91.5947 20.4639 90.7013 19.5779 90.0505 18.4109L89.1771 18.8979ZM88.07 14.2768C88.07 16.018 88.4332 17.5637 89.1771 18.8979L90.0505 18.4109C89.4027 17.249 89.07 15.8765 89.07 14.2768H88.07ZM89.162 9.64246C88.4274 10.9682 88.07 12.5188 88.07 14.2768H89.07C89.07 12.6556 89.3988 11.2783 90.0367 10.1271L89.162 9.64246ZM92.2483 6.59281C90.9256 7.30105 89.8944 8.32071 89.162 9.64246L90.0367 10.1271C90.6767 8.97207 91.5688 8.09096 92.7203 7.47439L92.2483 6.59281ZM96.7175 5.54C95.0609 5.54 93.567 5.88674 92.2483 6.59281L92.7203 7.47439C93.8759 6.85566 95.204 6.54 96.7175 6.54V5.54ZM115.876 18.0784V22.312H116.876V18.0784H115.876ZM114.81 18.5784H116.376V17.5784H114.81V18.5784ZM113.145 18.0653C113.547 18.4492 114.148 18.5784 114.81 18.5784V17.5784C114.235 17.5784 113.957 17.458 113.836 17.3427L113.145 18.0653ZM112.599 16.3792C112.599 17.0535 112.733 17.6711 113.145 18.0653L113.837 17.3427C113.727 17.2377 113.599 16.9721 113.599 16.3792H112.599ZM112.599 10.3888V16.3792H113.599V10.3888H112.599ZM116.347 9.8888H113.099V10.8888H116.347V9.8888ZM115.847 6.2416V10.3888H116.847V6.2416H115.847ZM113.099 6.7416H116.347V5.7416H113.099V6.7416ZM112.599 2.296V6.2416H113.599V2.296H112.599ZM108.141 2.796H113.099V1.796H108.141V2.796ZM108.641 6.2416V2.296H107.641V6.2416H108.641ZM105.967 6.7416H108.141V5.7416H105.967V6.7416ZM106.467 10.3888V6.2416H105.467V10.3888H106.467ZM108.141 9.8888H105.967V10.8888H108.141V9.8888ZM108.641 16.2928V10.3888H107.641V16.2928H108.641ZM110.053 20.5406C109.153 19.745 108.641 18.3758 108.641 16.2928H107.641C107.641 18.5107 108.184 20.223 109.39 21.2898L110.053 20.5406ZM114.143 21.812C112.328 21.812 110.987 21.3665 110.053 20.5406L109.39 21.2898C110.563 22.3263 112.17 22.812 114.143 22.812V21.812ZM116.376 21.812H114.143V22.812H116.376V21.812ZM124.617 22.312V1H123.617V22.312H124.617ZM119.159 22.812H124.117V21.812H119.159V22.812ZM118.659 1V22.312H119.659V1H118.659ZM124.117 0.5H119.159V1.5H124.117V0.5ZM130.814 6.42507L134.699 16.2747L135.629 15.9077L131.744 6.05813L130.814 6.42507ZM125.741 6.7416H131.279V5.7416H125.741V6.7416ZM132.984 21.5063L126.199 6.04073L125.283 6.44247L132.068 21.9081L132.984 21.5063ZM129.182 30.1816L132.98 21.916L132.072 21.4984L128.273 29.764L129.182 30.1816ZM134.179 29.4728H128.728V30.4728H134.179V29.4728ZM143.809 6.04596L133.718 29.7772L134.639 30.1684L144.729 6.43724L143.809 6.04596ZM138.789 6.7416H144.269V5.7416H138.789V6.7416ZM135.634 16.2639L139.258 6.41427L138.319 6.06893L134.695 15.9185L135.634 16.2639Z" fill="black"/>
<path d="M59.5754 6.8752L59.8408 6.45143V6.45143L59.5754 6.8752ZM59.5754 21.6784L59.8408 22.1022V22.1022L59.5754 21.6784ZM61.5181 19.4032H62.0181L61.0576 19.2085L61.5181 19.4032ZM61.5181 22.312H61.0181V22.812H61.5181V22.312ZM66.4762 22.312V22.812H66.9762V22.312H66.4762ZM66.4762 1H66.9762V0.5H66.4762V1ZM61.5181 1V0.5H61.0181V1H61.5181ZM61.5181 9.1504L61.0576 9.34513L62.0181 9.1504H61.5181ZM6.10941 15.1696V14.6696H5.60941V15.1696H6.10941ZM6.10941 22.312V22.812H6.60941V22.312H6.10941ZM13.2711 14.32L13.4965 14.7663L13.2711 14.32ZM14.7498 3.7504L14.4072 4.1146V4.1146L14.7498 3.7504ZM1.15134 1.9504V1.4504H0.651337V1.9504H1.15134ZM1.15134 22.312H0.651337V22.812H1.15134V22.312ZM6.10941 11.224H5.60941V11.724H6.10941V11.224ZM6.10941 5.9248V5.4248H5.60941V5.9248H6.10941ZM26.4491 6.9328L26.195 6.50218L26.4491 6.9328ZM24.0571 9.2656H23.5571V10.9934L24.4798 9.53263L24.0571 9.2656ZM29.624 6.0688H30.124V5.5688H29.624V6.0688ZM29.624 11.3392V11.8392H30.124V11.3392H29.624ZM25.1444 12.1744L24.8398 11.7779L25.1444 12.1744ZM24.0571 22.312V22.812H24.5571V22.312H24.0571ZM19.099 22.312H18.599V22.812H19.099V22.312ZM19.099 6.2416V5.7416H18.599V6.2416H19.099ZM24.0571 6.2416H24.5571V5.7416H24.0571V6.2416ZM43.5849 7.0336L43.8167 6.59057L43.5849 7.0336ZM34.959 7.0336L34.7286 6.58985V6.58985L34.959 7.0336ZM31.9581 9.8992L32.3905 10.1503L31.9581 9.8992ZM34.959 21.52L34.7286 21.9638L34.959 21.52ZM43.5849 21.52L43.8167 21.963L43.5849 21.52ZM46.5714 9.8992L46.139 10.1503L46.5714 9.8992ZM36.8872 11.3248L36.5247 10.9804V10.9804L36.8872 11.3248ZM36.8872 17.2144L36.5271 17.5613V17.5613L36.8872 17.2144ZM41.6568 17.2144L41.2941 16.8702V16.8702L41.6568 17.2144ZM41.6568 11.3248L41.2917 11.6665V11.6665L41.6568 11.3248ZM55.4147 11.3968L55.0498 11.055V11.055L55.4147 11.3968ZM55.4147 17.1568L55.0498 17.4986V17.4986L55.4147 17.1568ZM60.5468 17.128L60.9113 17.4702V17.4702L60.5468 17.128ZM60.5468 11.4112L60.909 11.0665L60.909 11.0665L60.5468 11.4112ZM85.9895 22.312V22.812H86.4895V22.312H85.9895ZM81.0024 22.312H80.5024V22.812H81.0024V22.312ZM85.9895 6.2416H86.4895V5.7416H85.9895V6.2416ZM81.0024 6.2416V5.7416H80.5024V6.2416H81.0024ZM80.1326 17.4736L79.7638 17.136V17.136L80.1326 17.4736ZM74.5947 6.2416H75.0947V5.7416H74.5947V6.2416ZM69.6656 6.2416V5.7416H69.1656V6.2416H69.6656ZM71.3038 20.6416L70.93 20.9738L71.3038 20.6416ZM78.9293 21.6496L79.1886 22.0771H79.1886L78.9293 21.6496ZM81.0024 19.4032H81.5024L80.554 19.1821L81.0024 19.4032ZM101.966 7.7536L101.651 8.14221L101.651 8.14221L101.966 7.7536ZM104.633 12.4624V12.9624H105.233L105.125 12.372L104.633 12.4624ZM99.385 12.4624L98.8971 12.5716L98.9845 12.9624H99.385V12.4624ZM94.4559 11.296L94.0698 10.9784L94.4559 11.296ZM94.4559 17.2576L94.8421 16.94L94.4559 17.2576ZM98.4282 17.704L98.1171 17.3125V17.3125L98.4282 17.704ZM99.385 16.0912V15.5912H98.9845L98.8971 15.982L99.385 16.0912ZM104.633 16.0912L105.125 16.1816L105.233 15.5912H104.633V16.0912ZM101.966 20.8L101.651 20.4114L101.651 20.4114L101.966 20.8ZM92.4988 21.52L92.2613 21.96V21.96L92.4988 21.52ZM89.6138 18.6544L90.0505 18.4109V18.4109L89.6138 18.6544ZM89.5993 9.8848L89.162 9.64246V9.64246L89.5993 9.8848ZM92.4843 7.0336L92.2483 6.59281V6.59281L92.4843 7.0336ZM116.376 18.0784H116.876V17.5784H116.376V18.0784ZM116.376 22.312V22.812H116.876V22.312H116.376ZM113.491 17.704L113.145 18.0653L113.145 18.0653L113.491 17.704ZM113.099 10.3888V9.8888H112.599V10.3888H113.099ZM116.347 10.3888V10.8888H116.847V10.3888H116.347ZM116.347 6.2416H116.847V5.7416H116.347V6.2416ZM113.099 6.2416H112.599V6.7416H113.099V6.2416ZM113.099 2.296H113.599V1.796H113.099V2.296ZM108.141 2.296V1.796H107.641V2.296H108.141ZM108.141 6.2416V6.7416H108.641V6.2416H108.141ZM105.967 6.2416V5.7416H105.467V6.2416H105.967ZM105.967 10.3888H105.467V10.8888H105.967V10.3888ZM108.141 10.3888H108.641V9.8888H108.141V10.3888ZM109.722 20.9152L110.053 20.5406L109.722 20.9152ZM124.117 22.312V22.812H124.617V22.312H124.117ZM124.117 1H124.617V0.5H124.117V1ZM119.159 22.312H118.659V22.812H119.159V22.312ZM119.159 1V0.5H118.659V1H119.159ZM131.279 6.2416L131.744 6.05813L131.619 5.7416H131.279V6.2416ZM135.164 16.0912L134.699 16.2747L135.181 17.495L135.634 16.2639L135.164 16.0912ZM125.741 6.2416V5.7416H124.976L125.283 6.44247L125.741 6.2416ZM132.526 21.7072L132.98 21.916L133.074 21.712L132.984 21.5063L132.526 21.7072ZM128.728 29.9728L128.273 29.764L127.948 30.4728H128.728V29.9728ZM134.179 29.9728V30.4728H134.509L134.639 30.1684L134.179 29.9728ZM144.269 6.2416L144.729 6.43724L145.025 5.7416H144.269V6.2416ZM138.789 6.2416V5.7416H138.44L138.319 6.06893L138.789 6.2416ZM56.386 6.54C57.5463 6.54 58.5138 6.80032 59.3101 7.29897L59.8408 6.45143C58.8588 5.83648 57.7 5.54 56.386 5.54V6.54ZM53.0714 7.45688C54.0393 6.84823 55.1394 6.54 56.386 6.54V5.54C54.9652 5.54 53.678 5.89417 52.5391 6.61032L53.0714 7.45688ZM50.7604 10.1054C51.333 8.94083 52.1047 8.06469 53.0714 7.45688L52.5391 6.61032C51.3988 7.32732 50.5082 8.35196 49.863 9.66419L50.7604 10.1054ZM49.8983 14.2768C49.8983 12.6468 50.192 11.2615 50.7604 10.1054L49.863 9.66419C49.2136 10.9849 48.8983 12.5276 48.8983 14.2768H49.8983ZM50.761 18.4352C50.1916 17.2679 49.8983 15.8865 49.8983 14.2768H48.8983C48.8983 16.008 49.214 17.5449 49.8623 18.8736L50.761 18.4352ZM53.0714 21.0967C52.1057 20.4895 51.3339 19.6094 50.761 18.4352L49.8623 18.8736C50.5072 20.1954 51.3978 21.2257 52.5391 21.9433L53.0714 21.0967ZM56.386 22.0136C55.1394 22.0136 54.0393 21.7054 53.0714 21.0967L52.5391 21.9433C53.678 22.6594 54.9652 23.0136 56.386 23.0136V22.0136ZM59.3101 21.2546C58.5138 21.7533 57.5463 22.0136 56.386 22.0136V23.0136C57.7 23.0136 58.8588 22.7171 59.8408 22.1022L59.3101 21.2546ZM61.0576 19.2085C60.6919 20.0732 60.1128 20.7519 59.3101 21.2546L59.8408 22.1022C60.8164 21.4913 61.5324 20.6532 61.9786 19.5979L61.0576 19.2085ZM62.0181 22.312V19.4032H61.0181V22.312H62.0181ZM66.4762 21.812H61.5181V22.812H66.4762V21.812ZM65.9762 1V22.312H66.9762V1H65.9762ZM61.5181 1.5H66.4762V0.5H61.5181V1.5ZM62.0181 9.1504V1H61.0181V9.1504H62.0181ZM59.3101 7.29897C60.1128 7.80166 60.6919 8.48036 61.0576 9.34513L61.9786 8.95567C61.5324 7.90043 60.8164 7.06235 59.8408 6.45143L59.3101 7.29897ZM5.60941 15.1696V22.312H6.60941V15.1696H5.60941ZM9.18284 14.6696H6.10941V15.6696H9.18284V14.6696ZM13.0456 13.8737C12.0111 14.3964 10.73 14.6696 9.18284 14.6696V15.6696C10.8445 15.6696 12.2888 15.3764 13.4965 14.7663L13.0456 13.8737ZM15.375 11.7374C14.8582 12.6335 14.0889 13.3466 13.0456 13.8737L13.4965 14.7663C14.6955 14.1606 15.6175 13.3185 16.2412 12.237L15.375 11.7374ZM16.1634 8.6032C16.1634 9.79262 15.8967 10.8327 15.375 11.7374L16.2412 12.237C16.86 11.1641 17.1634 9.94819 17.1634 8.6032H16.1634ZM14.4072 4.1146C15.5661 5.20461 16.1634 6.68151 16.1634 8.6032H17.1634C17.1634 6.45447 16.4851 4.6962 15.0924 3.3862L14.4072 4.1146ZM9.18284 2.4504C11.5412 2.4504 13.2552 3.03099 14.4072 4.1146L15.0924 3.3862C13.6929 2.0698 11.6956 1.4504 9.18284 1.4504V2.4504ZM1.15134 2.4504H9.18284V1.4504H1.15134V2.4504ZM1.65134 22.312V1.9504H0.651337V22.312H1.65134ZM6.10941 21.812H1.15134V22.812H6.10941V21.812ZM8.63194 11.724C9.68962 11.724 10.5763 11.4934 11.2016 10.9446C11.8394 10.3849 12.1184 9.57207 12.1184 8.6032H11.1184C11.1184 9.38154 10.8997 9.8791 10.542 10.193C10.1718 10.5178 9.56524 10.724 8.63194 10.724V11.724ZM6.10941 11.724H8.63194V10.724H6.10941V11.724ZM5.60941 5.9248V11.224H6.60941V5.9248H5.60941ZM8.63194 5.4248H6.10941V6.4248H8.63194V5.4248ZM12.1184 8.6032C12.1184 7.6184 11.8414 6.79235 11.2056 6.22217C10.5802 5.66127 9.69188 5.4248 8.63194 5.4248V6.4248C9.56298 6.4248 10.1679 6.63473 10.5379 6.96663C10.8977 7.28924 11.1184 7.80239 11.1184 8.6032H12.1184ZM26.195 6.50218C25.1489 7.11945 24.2944 7.95374 23.6343 8.99857L24.4798 9.53263C25.0569 8.61905 25.797 7.89815 26.7032 7.36342L26.195 6.50218ZM29.624 5.5688C28.3948 5.5688 27.2487 5.88046 26.195 6.50218L26.7032 7.36342C27.6019 6.83314 28.5724 6.5688 29.624 6.5688V5.5688ZM30.124 11.3392V6.0688H29.124V11.3392H30.124ZM28.2033 11.8392H29.624V10.8392H28.2033V11.8392ZM25.4489 12.5709C26.0555 12.105 26.9523 11.8392 28.2033 11.8392V10.8392C26.8255 10.8392 25.683 11.1302 24.8398 11.7779L25.4489 12.5709ZM24.5571 14.9968C24.5571 13.7543 24.8955 12.996 25.4489 12.5709L24.8398 11.7779C23.9435 12.4664 23.5571 13.5897 23.5571 14.9968H24.5571ZM24.5571 22.312V14.9968H23.5571V22.312H24.5571ZM19.099 22.812H24.0571V21.812H19.099V22.812ZM18.599 6.2416V22.312H19.599V6.2416H18.599ZM24.0571 5.7416H19.099V6.7416H24.0571V5.7416ZM24.5571 9.2656V6.2416H23.5571V9.2656H24.5571ZM39.2792 6.54C40.8129 6.54 42.167 6.85604 43.3531 7.47663L43.8167 6.59057C42.4707 5.88635 40.9543 5.54 39.2792 5.54V6.54ZM35.1894 7.47735C36.3861 6.85602 37.7456 6.54 39.2792 6.54V5.54C37.6041 5.54 36.0835 5.88637 34.7286 6.58985L35.1894 7.47735ZM32.3905 10.1503C33.0679 8.98405 33.9983 8.09583 35.1894 7.47735L34.7286 6.58985C33.3683 7.29618 32.2981 8.31834 31.5257 9.64808L32.3905 10.1503ZM31.3708 14.2768C31.3708 12.6805 31.7165 11.3108 32.3905 10.1503L31.5257 9.64808C30.75 10.9837 30.3708 12.5322 30.3708 14.2768H31.3708ZM32.3905 18.4033C31.7165 17.2428 31.3708 15.8731 31.3708 14.2768H30.3708C30.3708 16.0214 30.75 17.5699 31.5257 18.9055L32.3905 18.4033ZM35.1894 21.0763C33.9983 20.4578 33.0679 19.5696 32.3905 18.4033L31.5257 18.9055C32.2981 20.2353 33.3683 21.2574 34.7286 21.9638L35.1894 21.0763ZM39.2792 22.0136C37.7456 22.0136 36.3861 21.6976 35.1894 21.0763L34.7286 21.9638C36.0835 22.6672 37.6041 23.0136 39.2792 23.0136V22.0136ZM43.3531 21.077C42.167 21.6976 40.8129 22.0136 39.2792 22.0136V23.0136C40.9543 23.0136 42.4707 22.6672 43.8167 21.963L43.3531 21.077ZM46.139 18.4033C45.461 19.5705 44.5347 20.4588 43.3531 21.077L43.8167 21.963C45.1673 21.2564 46.232 20.2343 47.0037 18.9055L46.139 18.4033ZM47.1587 14.2768C47.1587 15.8731 46.813 17.2428 46.139 18.4033L47.0037 18.9055C47.7795 17.5699 48.1587 16.0214 48.1587 14.2768H47.1587ZM46.139 10.1503C46.813 11.3108 47.1587 12.6805 47.1587 14.2768H48.1587C48.1587 12.5322 47.7795 10.9837 47.0037 9.64808L46.139 10.1503ZM43.3531 7.47663C44.5347 8.09482 45.461 8.98307 46.139 10.1503L47.0037 9.64808C46.232 8.31932 45.1673 7.29719 43.8167 6.59057L43.3531 7.47663ZM37.2497 11.6692C37.802 11.0878 38.468 10.8024 39.2792 10.8024V9.8024C38.1962 9.8024 37.2674 10.1986 36.5247 10.9804L37.2497 11.6692ZM36.4159 14.2768C36.4159 13.0706 36.7187 12.2281 37.2497 11.6692L36.5247 10.9804C35.7606 11.7847 35.4159 12.9102 35.4159 14.2768H36.4159ZM37.2472 16.8675C36.7189 16.3192 36.4159 15.4835 36.4159 14.2768H35.4159C35.4159 15.6429 35.7604 16.7656 36.5271 17.5613L37.2472 16.8675ZM39.2792 17.7224C38.4656 17.7224 37.7989 17.44 37.2472 16.8675L36.5271 17.5613C37.2705 18.3328 38.1985 18.7224 39.2792 18.7224V17.7224ZM41.2941 16.8702C40.753 17.4402 40.0927 17.7224 39.2792 17.7224V18.7224C40.3601 18.7224 41.2848 18.3326 42.0194 17.5586L41.2941 16.8702ZM42.1136 14.2768C42.1136 15.4854 41.8144 16.3221 41.2941 16.8702L42.0194 17.5586C42.7749 16.7627 43.1136 15.6411 43.1136 14.2768H42.1136ZM41.2917 11.6665C41.8147 12.2252 42.1136 13.0688 42.1136 14.2768H43.1136C43.1136 12.912 42.7747 11.7876 42.0219 10.9831L41.2917 11.6665ZM39.2792 10.8024C40.0903 10.8024 40.7499 11.0875 41.2917 11.6665L42.0219 10.9831C41.2879 10.1989 40.3625 9.8024 39.2792 9.8024V10.8024ZM55.7796 11.7386C56.3206 11.1612 57.0372 10.86 57.9807 10.86V9.86C56.798 9.86 55.804 10.25 55.0498 11.055L55.7796 11.7386ZM54.9434 14.2768C54.9434 13.136 55.2423 12.3122 55.7796 11.7386L55.0498 11.055C54.2921 11.8638 53.9434 12.96 53.9434 14.2768H54.9434ZM55.7796 16.815C55.2423 16.2414 54.9434 15.4176 54.9434 14.2768H53.9434C53.9434 15.5936 54.2921 16.6898 55.0498 17.4986L55.7796 16.815ZM57.9807 17.6936C57.0372 17.6936 56.3206 17.3924 55.7796 16.815L55.0498 17.4986C55.804 18.3036 56.798 18.6936 57.9807 18.6936V17.6936ZM60.1822 16.7858C59.6171 17.3878 58.8975 17.6936 57.9807 17.6936V18.6936C59.1516 18.6936 60.1426 18.289 60.9113 17.4702L60.1822 16.7858ZM61.0471 14.2768C61.0471 15.3698 60.7437 16.1877 60.1822 16.7858L60.9113 17.4702C61.6836 16.6475 62.0471 15.5646 62.0471 14.2768H61.0471ZM60.1846 11.7559C60.7422 12.3419 61.0471 13.1618 61.0471 14.2768H62.0471C62.0471 12.9726 61.6851 11.8821 60.909 11.0665L60.1846 11.7559ZM57.9807 10.86C58.8997 10.86 59.62 11.1627 60.1846 11.7559L60.909 11.0665C60.1397 10.2581 59.1494 9.86 57.9807 9.86V10.86ZM85.9895 21.812H81.0024V22.812H85.9895V21.812ZM85.4895 6.2416V22.312H86.4895V6.2416H85.4895ZM81.0024 6.7416H85.9895V5.7416H81.0024V6.7416ZM81.5024 14.7664V6.2416H80.5024V14.7664H81.5024ZM80.5015 17.8112C81.1923 17.0563 81.5024 16.0166 81.5024 14.7664H80.5024C80.5024 15.8586 80.2327 16.6237 79.7638 17.136L80.5015 17.8112ZM77.7551 18.924C78.8744 18.924 79.8105 18.5661 80.5015 17.8112L79.7638 17.136C79.2949 17.6483 78.6461 17.924 77.7551 17.924V18.924ZM75.0862 17.8598C75.7664 18.5813 76.6753 18.924 77.7551 18.924V17.924C76.9018 17.924 76.274 17.6619 75.8138 17.1738L75.0862 17.8598ZM74.0947 14.968C74.0947 16.1484 74.4036 17.1359 75.0862 17.8598L75.8138 17.1738C75.3559 16.6881 75.0947 15.9764 75.0947 14.968H74.0947ZM74.0947 6.2416V14.968H75.0947V6.2416H74.0947ZM69.6656 6.7416H74.5947V5.7416H69.6656V6.7416ZM70.1656 15.5728V6.2416H69.1656V15.5728H70.1656ZM71.6775 20.3094C70.6891 19.1974 70.1656 17.6393 70.1656 15.5728H69.1656C69.1656 17.8071 69.7341 19.6282 70.93 20.9738L71.6775 20.3094ZM75.7254 21.9848C73.9922 21.9848 72.662 21.4171 71.6775 20.3094L70.93 20.9738C72.1298 22.3237 73.7474 22.9848 75.7254 22.9848V21.9848ZM78.6701 21.2221C77.8401 21.7254 76.8643 21.9848 75.7254 21.9848V22.9848C77.0221 22.9848 78.1822 22.6874 79.1886 22.0771L78.6701 21.2221ZM80.554 19.1821C80.1333 20.0354 79.5089 20.7134 78.6701 21.2221L79.1886 22.0771C80.1862 21.4722 80.9438 20.6527 81.4509 19.6243L80.554 19.1821ZM81.5024 22.312V19.4032H80.5024V22.312H81.5024ZM102.28 7.36499C100.767 6.13992 98.9016 5.54 96.7175 5.54V6.54C98.7087 6.54 100.342 7.08247 101.651 8.14221L102.28 7.36499ZM105.125 12.372C104.739 10.2726 103.795 8.59144 102.28 7.36499L101.651 8.14221C102.958 9.20057 103.793 10.6585 104.141 12.5528L105.125 12.372ZM99.385 12.9624H104.633V11.9624H99.385V12.9624ZM98.1171 11.2411C98.4979 11.5436 98.7635 11.9746 98.8971 12.5716L99.873 12.3532C99.6972 11.5678 99.325 10.9236 98.7393 10.4581L98.1171 11.2411ZM96.6015 10.7736C97.2454 10.7736 97.7383 10.9401 98.1171 11.2411L98.7393 10.4581C98.1516 9.99114 97.4268 9.7736 96.6015 9.7736V10.7736ZM94.8421 11.6136C95.3093 11.0455 95.8837 10.7736 96.6015 10.7736V9.7736C95.5797 9.7736 94.7237 10.1833 94.0698 10.9784L94.8421 11.6136ZM94.1151 14.2768C94.1151 13.0334 94.3832 12.1716 94.8421 11.6136L94.0698 10.9784C93.4075 11.7836 93.1151 12.909 93.1151 14.2768H94.1151ZM94.8421 16.94C94.3832 16.382 94.1151 15.5202 94.1151 14.2768H93.1151C93.1151 15.6446 93.4075 16.77 94.0698 17.5752L94.8421 16.94ZM96.6015 17.78C95.8837 17.78 95.3093 17.5081 94.8421 16.94L94.0698 17.5752C94.7237 18.3703 95.5797 18.78 96.6015 18.78V17.78ZM98.1171 17.3125C97.7383 17.6135 97.2454 17.78 96.6015 17.78V18.78C97.4268 18.78 98.1516 18.5625 98.7393 18.0955L98.1171 17.3125ZM98.8971 15.982C98.7635 16.579 98.4979 17.01 98.1171 17.3125L98.7393 18.0955C99.325 17.63 99.6972 16.9858 99.873 16.2004L98.8971 15.982ZM104.633 15.5912H99.385V16.5912H104.633V15.5912ZM102.28 21.1886C103.795 19.9622 104.739 18.281 105.125 16.1816L104.141 16.0008C103.793 17.8951 102.958 19.353 101.651 20.4114L102.28 21.1886ZM96.7175 23.0136C98.9016 23.0136 100.767 22.4137 102.28 21.1886L101.651 20.4114C100.342 21.4711 98.7087 22.0136 96.7175 22.0136V23.0136ZM92.2613 21.96C93.5712 22.6669 95.061 23.0136 96.7175 23.0136V22.0136C95.2039 22.0136 93.8813 21.6979 92.7363 21.08L92.2613 21.96ZM89.1771 18.8979C89.9182 20.2269 90.948 21.2513 92.2613 21.96L92.7363 21.08C91.5947 20.4639 90.7013 19.5779 90.0505 18.4109L89.1771 18.8979ZM88.07 14.2768C88.07 16.018 88.4332 17.5637 89.1771 18.8979L90.0505 18.4109C89.4027 17.249 89.07 15.8765 89.07 14.2768H88.07ZM89.162 9.64246C88.4274 10.9682 88.07 12.5188 88.07 14.2768H89.07C89.07 12.6556 89.3988 11.2783 90.0367 10.1271L89.162 9.64246ZM92.2483 6.59281C90.9256 7.30105 89.8944 8.32071 89.162 9.64246L90.0367 10.1271C90.6767 8.97207 91.5688 8.09096 92.7203 7.47439L92.2483 6.59281ZM96.7175 5.54C95.0609 5.54 93.567 5.88674 92.2483 6.59281L92.7203 7.47439C93.8759 6.85566 95.204 6.54 96.7175 6.54V5.54ZM115.876 18.0784V22.312H116.876V18.0784H115.876ZM114.81 18.5784H116.376V17.5784H114.81V18.5784ZM113.145 18.0653C113.547 18.4492 114.148 18.5784 114.81 18.5784V17.5784C114.235 17.5784 113.957 17.458 113.836 17.3427L113.145 18.0653ZM112.599 16.3792C112.599 17.0535 112.733 17.6711 113.145 18.0653L113.837 17.3427C113.727 17.2377 113.599 16.9721 113.599 16.3792H112.599ZM112.599 10.3888V16.3792H113.599V10.3888H112.599ZM116.347 9.8888H113.099V10.8888H116.347V9.8888ZM115.847 6.2416V10.3888H116.847V6.2416H115.847ZM113.099 6.7416H116.347V5.7416H113.099V6.7416ZM112.599 2.296V6.2416H113.599V2.296H112.599ZM108.141 2.796H113.099V1.796H108.141V2.796ZM108.641 6.2416V2.296H107.641V6.2416H108.641ZM105.967 6.7416H108.141V5.7416H105.967V6.7416ZM106.467 10.3888V6.2416H105.467V10.3888H106.467ZM108.141 9.8888H105.967V10.8888H108.141V9.8888ZM108.641 16.2928V10.3888H107.641V16.2928H108.641ZM110.053 20.5406C109.153 19.745 108.641 18.3758 108.641 16.2928H107.641C107.641 18.5107 108.184 20.223 109.39 21.2898L110.053 20.5406ZM114.143 21.812C112.328 21.812 110.987 21.3665 110.053 20.5406L109.39 21.2898C110.563 22.3263 112.17 22.812 114.143 22.812V21.812ZM116.376 21.812H114.143V22.812H116.376V21.812ZM124.617 22.312V1H123.617V22.312H124.617ZM119.159 22.812H124.117V21.812H119.159V22.812ZM118.659 1V22.312H119.659V1H118.659ZM124.117 0.5H119.159V1.5H124.117V0.5ZM130.814 6.42507L134.699 16.2747L135.629 15.9077L131.744 6.05813L130.814 6.42507ZM125.741 6.7416H131.279V5.7416H125.741V6.7416ZM132.984 21.5063L126.199 6.04073L125.283 6.44247L132.068 21.9081L132.984 21.5063ZM129.182 30.1816L132.98 21.916L132.072 21.4984L128.273 29.764L129.182 30.1816ZM134.179 29.4728H128.728V30.4728H134.179V29.4728ZM143.809 6.04596L133.718 29.7772L134.639 30.1684L144.729 6.43724L143.809 6.04596ZM138.789 6.7416H144.269V5.7416H138.789V6.7416ZM135.634 16.2639L139.258 6.41427L138.319 6.06893L134.695 15.9185L135.634 16.2639Z" fill="url(#paint0_linear_0_702)"/>
<defs>
<linearGradient id="paint0_linear_0_702" x1="72.71" y1="1" x2="72.71" y2="29.9728" gradientUnits="userSpaceOnUse">
<stop stop-color="white"/>
<stop offset="1" stop-color="white" stop-opacity="0"/>
</linearGradient>
</defs>
</svg>
